<svg id="logo_file" data-name="logo file" xmlns="http://www.w3.org/2000/svg" viewBox="0 0 5423.91542 5423.91542">
  <title>Artboard 2</title>
  <circle cx="2711.95771" cy="2711.95771" r="2711.95771" style="fill: #52bad5"/>
  <g>
    <g>
      <polygon points="1848.996 2941.185 1848.996 2941.185 1848.999 2941.186 1848.996 2941.185" style="fill: #231f20"/>
      <path d="M1711.03868,2967.6337l.012-.007.01311-.008Z" style="fill: #231f20"/>
      <polygon points="1958.304 3101.211 1958.293 3101.206 1958.281 3101.202 1958.304 3101.211" style="fill: #231f20"/>
      <path d="M1687.75591,3270.24733l-.00753.01093-.0103.01885Z" style="fill: #231f20"/>
      <path d="M4227.5585,3194.88469c-22.01046-46.9954-63.94277-79.40852-116.58211-91.83793-17.58574-80.36442-41.94878-119.83992-44.16859-125.693,9.295-10.5743,18.26737-21.21344,20.265-23.685,74.332-92.17656,25.82517-227.24165-101.2111-259.06381-71.47109-68.77017-136.13795-101.08811-189.24692-127.63111-50.93321-25.44672-30.58325-15.46889-78.35233-37.02691-12.67872-62.0942-16.86957-206.59282-37.06331-308.04214-18.13618-91.23663-54.64176-157.29368-110.9567-200.75164-22.5338-48.80182-54.114-97.963-92.21368-134.13719,177.14494-271.55981,223.77385-539.78436,94.044-680.24966-57.7872-62.56945-143.594-92.26906-246.18961-92.26391-144.47624.00721-322.20473,58.9238-501.65963,167.90454,0,0-116.78618-94.00283-119.315-95.9902C2205.09828,792.84727,791.6612,2532.14171,1290.61689,2912.22887l128.80158,98.43191c-80.85429,224.94436,31.58925,493.06164,265.95008,579.16008a413.91916,413.91916,0,0,0,166.19952,25.0335s378.619,694.3215,1177.41509,694.559c924.06443.2749,1159.2542-903.71993,1161.74336-911.85637C4190.72652,3397.557,4265.61367,3286.88526,4227.5585,3194.88469Z" style="fill: #231f20"/>
      <g>
        <path d="M1329.05724,2797.14754c-101.27963-170.90631,74.91908-521.94241,200.30075-721.48192,309.8652-493.13679,825.61291-882.31691,1059.86912-826.73525l64.42523-24.68849c.22008.18609,175.91081,148.67106,176.13105,148.85707,120.99352-72.64865,275.16592-146.721,419.30056-161.4351-87.717,19.73892-194.6109,65.21785-321.24376,142.71141-3.08586,1.786-299.664,201.94838-480.861,381.67623-98.74412,97.94346-495.25634,573.42855-494.944,573.0263,72.4666-137.14106,120.21-204.46039,234.925-348.73782,64.87981-81.59957,134.1135-160.95315,204.99-234.22734,32.90636-34.01963,66.16622-66.72743,99.50782-97.74291q34.39012-31.99052,68.80732-61.45257,15.8255-13.53606,31.61076-26.47194l.04817-.03961L2359.521,1348.50134l12.30115,86.00314,168.91724,148.82879s-149.48594,100.63884-223.833,164.07847c-298.0258,254.303-590.46786,644.68769-699.29348,1024.70148l5.187-.18225c-54.19768,29.86328-107.99486,77.78867-154.98126,142.98112C1466.54569,2914.5685,1346.17446,2826.2329,1329.05724,2797.14754Z" style="fill: #fff"/>
        <path d="M1821.93961,3510.973c-178.53228,0-323.2612-152.36463-323.2612-340.31587s144.72892-340.31587,323.2612-340.31587a308.44527,308.44527,0,0,1,130.09631,28.68279s68.711,34.6487,88.03756,198.36l.00032-.00079v.00055a791.7246,791.7246,0,0,0,30.26668-93.13361c23.03433,70.42679,34.82322,144.50191,30.19665,219.37868l.00047-.00079v.00063c19.09889-25.41218,39.60381-73.27411,39.60381-73.27411C2175.66764,3319.51387,2023.03341,3510.973,1821.93961,3510.973Z" style="fill: #fff"/>
        <path d="M4097.71174,3352.72152c-4.17723,8.17343-47.9608,245.31817-298.55833,442.22294-316.39077,248.62237-732.09084,223.45332-889.09908,84.13856-83.8692-78.4531-120.17531-190.64313-120.17531-190.64313s-9.49636,63.2258-11.12137,88.05943c-63.2689-107.61019-57.91475-239.0303-57.91475-239.0303s-33.755,62.93736-49.20617,98.19028c-46.56474-118.51473-22.507-240.88656-22.507-240.88656l-36.83309,54.90953s-17.27773-134.13141,25.1353-245.85688c45.32175-119.38776,133.21465-206.11119,150.57825-216.92117-66.68052-21.1938-143.50212-81.95013-143.6292-82.05929,0,0,30.546,2.02389,51.7801-2.857,0,0-134.807-96.57755-158.44755-244.34877,19.53033,24.139,60.51118,51.39647,60.51118,51.39647-13.2675-38.67037-21.29017-124.69933-8.8957-209.37443l.04373-.0915c25.50432-161.74846,158.81783-267.0771,309.81565-265.75979,160.77145,1.41824,268.48892,35.15667,403.25172-89.11518,28.52284-26.29773,51.28765-48.99057,91.3237-57.86353,4.227-.93922,14.696-5.32773,36.17967-5.32551,21.74253,0,42.68016,4.89237,61.84227,16.29909,73.09023,43.50914,88.85117,156.98028,96.71144,240.17978,29.05046,308.61634,17.29579,253.66058,142.19306,317.28083,59.58459,30.278,126.54192,59.0973,202.72483,140.66142.21358.229.5761.67022.5761.67022s.66578-.0061.91676,0c64.24888,1.53434,97.36724,52.12527,67.7223,88.95365-215.5978,257.46768-516.71374,380.76332-852.30718,391.0786-13.8699.35721-45.03671,1.0756-45.20482,1.08075-135.53808,4.10323-179.66832,179.45133-94.62774,284.90217,53.74909,66.64907,157.13753,88.55124,242.23294,88.8732l1.20291-.42122c366.92138,7.43659,735.54825-252.20559,799.2112-395.38306.45917-1.0344,4.35057-10.1486,4.35057-10.1486-14.75572,17.29749-372.13787,353.78552-806.45829,341.60648,0,0-47.48483-.97919-92.19245-11.395-58.95953-13.71534-103.7516-39.61815-120.89671-98.38049,36.03469,7.22174,81.64132,11.84625,134.58171,11.84625,313.48253,0,539.38714-142.52207,515.79033-144.42158a17.73624,17.73624,0,0,0-3.40592.56612c-36.55027,8.46758-413.37965,154.447-651.607,79.6183a117.33283,117.33283,0,0,1,3.39039-20.67921c21.19621-70.9468,58.84862-61.0342,119.70219-63.6822l.00634-.00222c217.34259-7.23536,392.73007-61.88877,524.1657-124.2875,140.16434-66.54236,246.98659-152.28375,285.46766-195.56085,49.92075,84.04959,49.62351,191.971,49.62351,191.971a152.09864,152.09864,0,0,1,45.49762-6.8383C4142.61076,3205.9003,4159.37132,3278.76625,4097.71174,3352.72152Z" style="fill: #fff"/>
        <path d="M2586.08643,1975.47978c347.99821-225.55413,695.60252-251.48391,814.69122-159.92033l.0206-.03383c-.21818-.60379-2.1333-5.88621-2.87957-7.32952l-.00032.00036c-30.239-64.25011-100.7936-109.07541-163.64468-127.05861,11.02377,11.45224,26.97436,32.41836,33.42717,44.88084-47.4373-32.57648-110.46378-61.27361-176.24371-74.90323,0,0,7.836,5.63278,9.178,6.88282,13.11111,12.21048,30.56044,31.50944,37.70026,48.084-62.871-25.24692-142.35023-39.38781-210.38688-26.29226-.94908.18257-8.49864,1.96752-8.49864,1.96752s8.85657,2.20341,10.82334,2.78739c22.56391,6.68893,54.759,20.4379,68.94961,39.28327-112.936-19.86461-237.17413,2.12185-304.17978,39.58531a153.34436,153.34436,0,0,1,15.817-.20309c24.64729.65628,74.30344,4.005,95.15472,17.27135-71.238,14.48819-174.33,46.35591-229.83023,94.08324,9.80216-1.13925,65.40426-8.22738,88.16226-4.57247-305.47712,174.8036-444.503,439.08523-444.503,439.08523l.00317-.00182C2309.90584,2191.71326,2426.75,2078.75335,2586.08643,1975.47978Z" style="fill: #fff"/>
      </g>
      <polygon points="2581.015 1361.362 2624.009 1375.284 2589.227 1248.93 2568.777 1311.878 2581.015 1361.362" style="fill: #231f20"/>
      <path d="M2700.01,1458.011l-146.70191-44.79635,96.948,81.15656C2664.37491,1483.72126,2681.09571,1471.41259,2700.01,1458.011Z" style="fill: #231f20"/>
      <path d="M2773.67777,1408.09821,2702.563,1348.486l25.82754,89.75866C2742.60033,1428.51821,2757.74032,1418.41025,2773.67777,1408.09821Z" style="fill: #231f20"/>
      <path d="M3072.27555,2680.23809c28.85019,11.22979,48.38416,19.86005,53.8543,13.4736,2.74235-3.11375.92151-10.6073-5.8645-20.53269-17.92291-26.2151-52.17811-48.62306-82.69973-59.84832-69.68875-25.933-151.248-11.23525-210.625,36.13593-29.5166,23.9838-42.59207,48.69828-29.08516,50.70993,8.28775,1.2344,25.54773-5.94151,49.89667-15.22888C2944.04667,2648.497,2998.43952,2652.68742,3072.27555,2680.23809Z" style="fill: #231f20"/>
      <path d="M3083.14389,2767.56388c17.96347,1.20727,29.994,2.288,32.784-2.60253,6.18876-10.49089-41.43268-46.561-106.50267-35.51269-8.11726,1.23959-15.62182,3.75236-23.00343,5.73343a53.26619,53.26619,0,0,0-7.81575,2.68864c-16.00082,6.73492-29.85377,14.00589-43.29461,26.88437-15.41664,14.90569-19.796,28.74268-15.34,32.14951,4.38352,3.49588,15.05348-1.67911,31.54976-8.35168C3006.783,2765.57928,3045.88316,2764.97113,3083.14389,2767.56388Z" style="fill: #231f20"/>
      <path d="M1936.89338,3054.40259c16.99427,24.06136,11.5872,38.09629,18.56168,44.92255a8.7418,8.7418,0,0,0,9.69973,1.78226c9.63255-3.97846,14.37027-19.30843,15.2757-30.001l.00071.00008.00634-.0713-.00127-.00016c2.41921-25.71283-11.17049-54.61736-29.19037-75.09456l.00016-.00016-.04864-.056-.0004.00032c-23.44143-27.23089-60.37254-48.21437-102.20106-54.69956-38.11261-5.93-75.60411,1.66046-86.07135,4.78443l.05134-.01509c-5.39582,1.564-12.07093,2.973-17.8044,5.22229-102.49862,39.97539-146.89058,139.95982-125.59759,239.438l-.00475-.02234c5.26384,24.038,16.01778,51.10188,32.80084,68.87514l-.00032.00032.05324.05688.0004-.0004c20.98984,22.684,43.99279,18.34216,34.17178-2.75986-2.34466-5.84272-15.02092-29.73613-16.726-72.98225-1.74029-44.49461,8.58872-90.71273,37.03733-126.03854,21.12682-25.8426,47.08587-37.41838,50.12277-39.10677l.00016.00032c3.63788-1.93255,7.42835-3.25,11.53063-5.17289a49.00431,49.00431,0,0,1,5.49818-1.81062c13.04623-3.67821,5.64236-2.08489,18.86423-4.887l-.01188.00254C1863.40113,2991.83554,1914.34,3022.45271,1936.89338,3054.40259Z" style="fill: #231f20"/>
      <path d="M1905.03544,3128.15338c-6.86706-5.43813-10.06217-10.086-11.95067-17.23764-2.80851-13.02524-1.34472-20.59008,9.783-28.40813,8.56915-5.87258,15.47011-8.70026,15.493-12.39265.38787-6.976-28.28359-14.16667-48.32886,5.56813-16.6468,17.73088-21.90113,54.69666,4.653,83.51223,29.56049,31.90214,75.53487,39.42778,82.69854,79.53084a76.329,76.329,0,0,1,1.15,18.25723c.10529,7.17777-2.29332,17.49487-2.413,18.14568-8.88968,38.7387-45.66,75.71209-106.28647,66.28639-11.1693-1.6239-18.407-2.99729-20.56061.08857-4.67458,6.507,21.30673,36.23425,68.87134,35.15445,67.92322-1.4348,124.09856-70.47962,110.68869-147.62714C1996.7036,3161.79651,1929.88222,3147.97549,1905.03544,3128.15338Z" style="fill: #231f20"/>
      <ellipse cx="3519.81137" cy="2693.71372" rx="46.21421" ry="33.70115" transform="translate(315.81907 5756.32684) rotate(-81.13444)" style="fill: #231f20"/>
      <ellipse cx="3370.66898" cy="2746.71853" rx="38.08593" ry="52.22705" transform="translate(-657.93275 4382.64033) rotate(-61.27712)" style="fill: #231f20"/>
      <path d="M3032.88549,3431.77924c-.21263,6.48782-.1407,12.197.11075,17.18195C3032.70486,3443.474,3032.64719,3437.6397,3032.88549,3431.77924Z" style="fill: #231f20"/>
      <path d="M3033.01636,3449.32371c.01949.37013.042.72789.06338,1.08994Q3033.04647,3449.87117,3033.01636,3449.32371Z" style="fill: #231f20"/>
      <path d="M3033.86626,3459.32868c.0168.13951.033.28409.04991.42178C3033.89937,3459.61047,3033.88289,3459.46961,3033.86626,3459.32868Z" style="fill: #231f20"/>
      <path d="M3033.97067,3460.1918c1.43646,11.26619,3.66941,16.50143,3.94035,17.10589C3036.29727,3473.8463,3034.90391,3467.7313,3033.97067,3460.1918Z" style="fill: #231f20"/>
      <path d="M3420.36946,2555.30664c36.84957-3.19285,72.68683,3.29061,103.17866,18.55534-2.35226-87.74357-53.44472-186.572-92.03226-173.18224l-.00127-.00337a.22794.22794,0,0,1-.04516.01521l.00111.003c-22.57927,7.37071-26.37465,46.9986-25.90059,70.979A297.03944,297.03944,0,0,0,3420.36946,2555.30664Z" style="fill: #231f20"/>
      <path d="M2700.01,1458.011l-146.70191-44.79635,96.948,81.15656C2664.37491,1483.72126,2681.09571,1471.41259,2700.01,1458.011Z" style="fill: #231f20"/>
      <path d="M3072.27555,2680.23809c28.85019,11.22979,48.38416,19.86005,53.8543,13.4736,2.74235-3.11375.92151-10.6073-5.8645-20.53269-17.92291-26.2151-52.17811-48.62306-82.69973-59.84832-69.68875-25.933-151.248-11.23525-210.625,36.13593-29.5166,23.9838-42.59207,48.69828-29.08516,50.70993,8.28775,1.2344,25.54773-5.94151,49.89667-15.22888C2944.04667,2648.497,2998.43952,2652.68742,3072.27555,2680.23809Z" style="fill: #231f20"/>
      <path d="M3083.14389,2767.56388c17.96347,1.20727,29.994,2.288,32.784-2.60253,6.18876-10.49089-41.43268-46.561-106.50267-35.51269-8.11726,1.23959-15.62182,3.75236-23.00343,5.73343a53.26619,53.26619,0,0,0-7.81575,2.68864c-16.00082,6.73492-29.85377,14.00589-43.29461,26.88437-15.41664,14.90569-19.796,28.74268-15.34,32.14951,4.38352,3.49588,15.05348-1.67911,31.54976-8.35168C3006.783,2765.57928,3045.88316,2764.97113,3083.14389,2767.56388Z" style="fill: #231f20"/>
      <path d="M1936.89338,3054.40259c16.99427,24.06136,11.5872,38.09629,18.56168,44.92255a8.7418,8.7418,0,0,0,9.69973,1.78226c9.63255-3.97846,14.37027-19.30843,15.2757-30.001l.00071.00008.00634-.0713-.00127-.00016c2.41921-25.71283-11.17049-54.61736-29.19037-75.09456l.00016-.00016-.04864-.056-.0004.00032c-23.44143-27.23089-60.37254-48.21437-102.20106-54.69956-38.11261-5.93-75.60411,1.66046-86.07135,4.78443l.05134-.01509c-5.39582,1.564-12.07093,2.973-17.8044,5.22229-102.49862,39.97539-146.89058,139.95982-125.59759,239.438l-.00475-.02234c5.26384,24.038,16.01778,51.10188,32.80084,68.87514l-.00032.00032.05324.05688.0004-.0004c20.98984,22.684,43.99279,18.34216,34.17178-2.75986-2.34466-5.84272-15.02092-29.73613-16.726-72.98225-1.74029-44.49461,8.58872-90.71273,37.03733-126.03854,21.12682-25.8426,47.08587-37.41838,50.12277-39.10677l.00016.00032c3.63788-1.93255,7.42835-3.25,11.53063-5.17289a49.00431,49.00431,0,0,1,5.49818-1.81062c13.04623-3.67821,5.64236-2.08489,18.86423-4.887l-.01188.00254C1863.40113,2991.83554,1914.34,3022.45271,1936.89338,3054.40259Z" style="fill: #231f20"/>
      <path d="M1905.03544,3128.15338c-6.86706-5.43813-10.06217-10.086-11.95067-17.23764-2.80851-13.02524-1.34472-20.59008,9.783-28.40813,8.56915-5.87258,15.47011-8.70026,15.493-12.39265.38787-6.976-28.28359-14.16667-48.32886,5.56813-16.6468,17.73088-21.90113,54.69666,4.653,83.51223,29.56049,31.90214,75.53487,39.42778,82.69854,79.53084a76.329,76.329,0,0,1,1.15,18.25723c.10529,7.17777-2.29332,17.49487-2.413,18.14568-8.88968,38.7387-45.66,75.71209-106.28647,66.28639-11.1693-1.6239-18.407-2.99729-20.56061.08857-4.67458,6.507,21.30673,36.23425,68.87134,35.15445,67.92322-1.4348,124.09856-70.47962,110.68869-147.62714C1996.7036,3161.79651,1929.88222,3147.97549,1905.03544,3128.15338Z" style="fill: #231f20"/>
      <ellipse cx="3519.81137" cy="2693.71372" rx="46.21421" ry="33.70115" transform="translate(315.81907 5756.32684) rotate(-81.13444)" style="fill: #231f20"/>
      <ellipse cx="3370.66898" cy="2746.71853" rx="38.08593" ry="52.22705" transform="translate(-657.93275 4382.64033) rotate(-61.27712)" style="fill: #231f20"/>
    </g>
    <path d="M3819.59311,4080.26123v-11.94141h43.94141v11.94141h-14.82617v37.83643h-14.49023v-37.83643Zm69.03223-11.94141,9.05664,28.64551,8.92285-28.64551h20.66211v49.77783h-13.21582v-36.03272l-10.80078,36.03272h-11.27051l-10.80078-35.94238v35.94238h-13.2168v-49.77783Z" style="fill: #231f20"/>
  </g>
</svg>
